<?xml version="1.0" encoding="UTF-8" standalone="no"?>
<svg
   id="Layer_1"
   viewBox="0 0 1213.1782 472.81324"
   width="2053.45"
   height="800"
   version="1.1"
   sodipodi:docname="appstore.svg"
   inkscape:version="1.2.2 (b0a8486541, 2022-12-01)"
   xmlns:inkscape="http://www.inkscape.org/namespaces/inkscape"
   xmlns:sodipodi="http://sodipodi.sourceforge.net/DTD/sodipodi-0.dtd"
   xmlns="http://www.w3.org/2000/svg"
   xmlns:svg="http://www.w3.org/2000/svg"
   xmlns:rdf="http://www.w3.org/1999/02/22-rdf-syntax-ns#"
   xmlns:cc="http://creativecommons.org/ns#"
   xmlns:dc="http://purl.org/dc/elements/1.1/">
  <defs
     id="defs26467" />
  <sodipodi:namedview
     id="namedview26465"
     pagecolor="#ffffff"
     bordercolor="#666666"
     borderopacity="1.0"
     inkscape:showpageshadow="2"
     inkscape:pageopacity="0.0"
     inkscape:pagecheckerboard="0"
     inkscape:deskcolor="#d1d1d1"
     showgrid="false"
     inkscape:zoom="0.10429825"
     inkscape:cx="719.09164"
     inkscape:cy="551.30359"
     inkscape:window-width="1920"
     inkscape:window-height="1200"
     inkscape:window-x="0"
     inkscape:window-y="0"
     inkscape:window-maximized="1"
     inkscape:current-layer="Artboard-1" />
  <style
     id="style26428">.st0{fill:#fff}</style>
  <title
     id="title26430">Apple</title>
  <g
     id="Page-1"
     transform="translate(-131.2477,-88)">
    <g
       id="Artboard-1"
       transform="translate(-461,-850)">
      <g
         id="icon"
         transform="translate(592,1008.922)"
         style="fill:#888888;fill-opacity:1">
        <path
           id="Fill-2"
           d="M 192.3,150.6 C 192,114.8 221.6,97.4 222.9,96.6 206.1,72.2 180.1,68.8 171,68.5 149.2,66.2 128,81.6 116.9,81.6 105.6,81.6 88.4,68.8 70,69.1 46.3,69.5 24,83.2 11.9,104.6 c -25.1,43.5 -6.4,107.5 17.7,142.7 12.1,17.2 26.1,36.5 44.6,35.8 18,-0.7 24.8,-11.5 46.5,-11.5 21.6,0 27.9,11.5 46.7,11.1 19.4,-0.3 31.5,-17.3 43.2,-34.7 13.9,-19.7 19.5,-39.2 19.7,-40.2 -0.5,-0.2 -37.6,-14.4 -38,-57.2"
           style="fill:#888888;fill-opacity:1" />
        <path
           id="Fill-3"
           d="m 156.8,45.4 c 9.7,-12.1 16.3,-28.6 14.5,-45.4 -14,0.6 -31.6,9.7 -41.7,21.6 -8.9,10.5 -16.9,27.6 -14.9,43.7 15.8,1.2 32,-8 42.1,-19.9"
           style="fill:#888888;fill-opacity:1" />
      </g>
      <g
         transform="translate(921,1099.9148)"
         id="g26444"
         style="fill:#888888;fill-opacity:1">
        <path
           id="Fill-4"
           d="M 124.5,150.6 H 99.3 L 85.5,107.2 h -48 L 24.4,150.6 H -0.1 L 47.4,2.9 H 76.8 Z M 81.4,89 68.9,50.5 C 67.6,46.5 65.1,37.3 61.5,22.7 H 61 C 59.5,29 57.2,38.3 54,50.5 L 41.7,89 Z"
           style="fill:#888888;fill-opacity:1" />
        <path
           id="Fill-5"
           d="m 246.6,96.1 c 0,18.1 -4.9,32.4 -14.8,42.9 -8.8,9.4 -19.8,14 -32.8,14 -14.1,0 -24.2,-5 -30.4,-15.1 v 55.9 H 144.9 V 79.1 c 0,-11.4 -0.3,-23 -0.9,-35 h 20.8 l 1.3,16.9 h 0.4 c 7.9,-12.7 19.9,-19.1 35.9,-19.1 12.6,0 23,5 31.4,14.9 8.6,10 12.8,23 12.8,39.3 z m -24.1,0.8 c 0,-10.4 -2.3,-18.9 -7,-25.6 -5.1,-7 -12,-10.5 -20.6,-10.5 -5.8,0 -11.1,2 -15.9,5.8 -4.7,3.9 -7.9,8.9 -9.3,15.2 -0.7,2.9 -1.1,5.3 -1.1,7.2 v 17.8 c 0,7.7 2.4,14.3 7.1,19.6 4.7,5.3 10.9,8 18.5,8 8.9,0 15.8,-3.5 20.8,-10.3 5,-6.9 7.5,-15.9 7.5,-27.2 z"
           style="fill:#888888;fill-opacity:1" />
        <path
           id="Fill-6"
           d="m 369,96.1 c 0,18.1 -4.9,32.4 -14.8,42.9 -8.8,9.4 -19.8,14 -32.8,14 -14.1,0 -24.2,-5 -30.4,-15.1 v 55.9 H 267.3 V 79.1 c 0,-11.4 -0.3,-23 -0.9,-35 h 20.8 l 1.3,16.9 h 0.4 c 7.9,-12.7 19.9,-19.1 35.9,-19.1 12.6,0 23,5 31.4,14.9 8.6,10 12.8,23 12.8,39.3 z m -24.1,0.8 c 0,-10.4 -2.3,-18.9 -7,-25.6 -5.1,-7 -12,-10.5 -20.6,-10.5 -5.8,0 -11.1,2 -15.9,5.8 -4.7,3.9 -7.8,8.9 -9.3,15.2 -0.7,2.9 -1.1,5.3 -1.1,7.2 v 17.8 c 0,7.7 2.4,14.3 7.1,19.6 4.7,5.3 10.9,8 18.5,8 8.9,0 15.9,-3.5 20.8,-10.3 5.1,-6.9 7.5,-15.9 7.5,-27.2 z"
           style="fill:#888888;fill-opacity:1" />
        <path
           id="Fill-7"
           d="m 506,109.2 c 0,12.6 -4.4,22.8 -13.1,30.7 -9.6,8.6 -23,12.9 -40.2,12.9 -15.9,0 -28.6,-3.1 -38.2,-9.2 l 5.5,-19.7 c 10.4,6.1 21.8,9.2 34.2,9.2 8.9,0 15.9,-2 20.8,-6 5,-4 7.5,-9.4 7.5,-16.1 0,-6 -2.1,-11 -6.1,-15.1 C 472.3,91.8 465.5,88 456,84.5 429.9,74.8 417,60.7 417,42.2 c 0,-12.1 4.6,-22 13.7,-29.8 9.1,-7.7 21.2,-11.6 36.3,-11.6 13.4,0 24.6,2.3 33.5,7 l -6,19.2 c -8.4,-4.5 -17.8,-6.8 -28.4,-6.8 -8.3,0 -14.9,2.1 -19.6,6.1 -3.9,3.7 -5.9,8.1 -5.9,13.4 0,5.8 2.3,10.7 6.8,14.4 3.9,3.5 11.1,7.3 21.5,11.4 12.7,5.1 22,11.1 28,18 6.1,6.9 9.1,15.5 9.1,25.7"
           style="fill:#888888;fill-opacity:1" />
        <path
           id="Fill-8"
           d="m 584.4,61.9 h -26.1 v 51.7 c 0,13.1 4.6,19.7 13.8,19.7 4.2,0 7.7,-0.4 10.5,-1.1 l 0.7,18 c -4.7,1.7 -10.8,2.6 -18.4,2.6 -9.4,0 -16.6,-2.9 -21.9,-8.6 -5.3,-5.7 -7.9,-15.3 -7.9,-28.7 V 61.8 H 519.6 V 44.1 h 15.5 V 24.6 l 23.2,-7 v 26.5 h 26.1 v 17.8"
           style="fill:#888888;fill-opacity:1" />
        <path
           id="Fill-9"
           d="m 701.8,96.5 c 0,16.4 -4.7,29.8 -14,40.3 -9.8,10.8 -22.8,16.2 -39,16.2 -15.6,0 -28.1,-5.2 -37.4,-15.5 -9.3,-10.3 -13.9,-23.4 -13.9,-39.2 0,-16.5 4.8,-30 14.3,-40.5 9.6,-10.5 22.5,-15.8 38.7,-15.8 15.6,0 28.2,5.2 37.7,15.6 9.1,10 13.6,23 13.6,38.9 z M 677.3,97 c 0,-9.8 -2.1,-18.1 -6.3,-25.1 -5,-8.5 -12.1,-12.7 -21.3,-12.7 -9.5,0 -16.8,4.2 -21.7,12.7 -4.3,7 -6.3,15.5 -6.3,25.6 0,9.8 2.1,18.2 6.3,25.1 5.1,8.5 12.3,12.7 21.5,12.7 9,0 16.1,-4.3 21.3,-12.9 4.3,-7.2 6.5,-15.6 6.5,-25.4 z"
           style="fill:#888888;fill-opacity:1" />
        <path
           id="Fill-10"
           d="m 778.8,64.9 c -2.3,-0.4 -4.8,-0.6 -7.5,-0.6 -8.3,0 -14.8,3.1 -19.3,9.4 -3.9,5.5 -5.9,12.6 -5.9,21 v 55.9 h -23.7 v -73 c 0,-12.3 -0.2,-23.5 -0.7,-33.5 h 20.6 l 0.9,20.4 h 0.7 c 2.5,-7 6.4,-12.7 11.8,-16.9 5.3,-3.8 11,-5.7 17.1,-5.7 2.2,0 4.2,0.2 5.9,0.4 l 0.1,22.6"
           style="fill:#888888;fill-opacity:1" />
        <path
           id="Fill-11"
           d="m 884.6,92.3 c 0,4.2 -0.3,7.8 -0.9,10.7 h -71 c 0.3,10.5 3.7,18.6 10.3,24.1 6,4.9 13.7,7.4 23.2,7.4 10.5,0 20.1,-1.7 28.7,-5 l 3.7,16.4 c -10.1,4.4 -22,6.6 -35.7,6.6 -16.5,0 -29.5,-4.9 -38.9,-14.6 -9.4,-9.7 -14.1,-22.8 -14.1,-39.1 0,-16 4.4,-29.4 13.2,-40.1 9.2,-11.4 21.6,-17.1 37.2,-17.1 15.3,0 27,5.7 34.8,17.1 6.3,9.2 9.5,20.3 9.5,33.6 z M 862,86.2 c 0.2,-7 -1.4,-13.1 -4.6,-18.2 -4.1,-6.6 -10.4,-9.9 -18.8,-9.9 -7.7,0 -14,3.2 -18.8,9.6 -3.9,5.1 -6.3,11.3 -7,18.4 z"
           style="fill:#888888;fill-opacity:1" />
      </g>
    </g>
  </g>
  <metadata
     id="metadata26469">
    <rdf:RDF>
      <cc:Work
         rdf:about="">
        <dc:title>Apple</dc:title>
      </cc:Work>
    </rdf:RDF>
  </metadata>
</svg>
