<?xml version="1.0" encoding="UTF-8" standalone="no"?>
<svg
   viewBox="0 0 8080.5699 2500.0002"
   version="1.1"
   id="svg30429"
   sodipodi:docname="googleplay.svg"
   width="8080.5698"
   height="2500"
   inkscape:version="1.2.2 (b0a8486541, 2022-12-01)"
   xmlns:inkscape="http://www.inkscape.org/namespaces/inkscape"
   xmlns:sodipodi="http://sodipodi.sourceforge.net/DTD/sodipodi-0.dtd"
   xmlns="http://www.w3.org/2000/svg"
   xmlns:svg="http://www.w3.org/2000/svg">
  <defs
     id="defs30433" />
  <sodipodi:namedview
     id="namedview30431"
     pagecolor="#ffffff"
     bordercolor="#666666"
     borderopacity="1.0"
     inkscape:showpageshadow="2"
     inkscape:pageopacity="0.0"
     inkscape:pagecheckerboard="0"
     inkscape:deskcolor="#d1d1d1"
     showgrid="false"
     inkscape:zoom="0.030992279"
     inkscape:cx="5936.9626"
     inkscape:cy="9276.504"
     inkscape:window-width="1920"
     inkscape:window-height="1200"
     inkscape:window-x="0"
     inkscape:window-y="0"
     inkscape:window-maximized="1"
     inkscape:current-layer="g31296" />
  <style
     id="style30373">.st7{fill-rule:evenodd;clip-rule:evenodd;fill:#808285}</style>
  <linearGradient
     id="d"
     x1="2891"
     x2="2784.3999"
     y1="1504.5"
     y2="1449.5"
     gradientTransform="matrix(11.64,0,0,-22.55,-32777,34043)"
     gradientUnits="userSpaceOnUse">
    <stop
       offset="0"
       stop-color="#00A0FF"
       id="stop30375" />
    <stop
       offset=".007"
       stop-color="#00A1FF"
       id="stop30377" />
    <stop
       offset=".26"
       stop-color="#00BEFF"
       id="stop30379" />
    <stop
       offset=".512"
       stop-color="#00D2FF"
       id="stop30381" />
    <stop
       offset=".76"
       stop-color="#00DFFF"
       id="stop30383" />
    <stop
       offset="1"
       stop-color="#00E3FF"
       id="stop30385" />
  </linearGradient>
  <linearGradient
     id="c"
     x1="2935.2"
     x2="2739.3999"
     y1="1422.8"
     y2="1422.8"
     gradientTransform="matrix(9.145,0,0,-7.7,-25077,11907)"
     gradientUnits="userSpaceOnUse">
    <stop
       offset="0"
       stop-color="#FFE000"
       id="stop30390" />
    <stop
       offset=".409"
       stop-color="#FFBD00"
       id="stop30392" />
    <stop
       offset=".775"
       stop-color="orange"
       id="stop30394" />
    <stop
       offset="1"
       stop-color="#FF9C00"
       id="stop30396" />
  </linearGradient>
  <linearGradient
     id="b"
     x1="2948.8"
     x2="2836.6001"
     y1="1431.3"
     y2="1285.9"
     gradientTransform="matrix(15.02,0,0,-11.578,-43192,17693)"
     gradientUnits="userSpaceOnUse">
    <stop
       offset="0"
       stop-color="#FF3A44"
       id="stop30401" />
    <stop
       offset="1"
       stop-color="#C31162"
       id="stop30403" />
  </linearGradient>
  <linearGradient
     id="a"
     x1="2862.3999"
     x2="2912.5"
     y1="1571.7"
     y2="1506.8"
     gradientTransform="matrix(15.02,0,0,-11.572,-43192,17672)"
     gradientUnits="userSpaceOnUse">
    <stop
       offset="0"
       stop-color="#32A071"
       id="stop30408" />
    <stop
       offset=".069"
       stop-color="#2DA771"
       id="stop30410" />
    <stop
       offset=".476"
       stop-color="#15CF74"
       id="stop30412" />
    <stop
       offset=".801"
       stop-color="#06E775"
       id="stop30414" />
    <stop
       offset="1"
       stop-color="#00F076"
       id="stop30416" />
  </linearGradient>
  <g
     id="g31296"
     transform="translate(-170.83,298.14294)">
    <g
       id="g31285"
       transform="matrix(0.8,0,0,0.8,170.83,190.37141)">
      <path
         fill="url(#d)"
         fill-rule="evenodd"
         d="M 33.7,29.2 C 12.3,52.2 0,87.6 0,133.6 v 1636.2 c 0,46 12.3,81.4 34.5,103.6 l 5.8,4.9 916.8,-916.8 V 940.9 L 39.5,24.3 Z"
         clip-rule="evenodd"
         id="path30388"
         style="fill:url(#d)" />
      <path
         fill="url(#c)"
         fill-rule="evenodd"
         d="M 1262.1,1268.3 956.3,962.4 V 941 l 305.9,-305.9 6.6,4.1 361.8,205.6 c 103.6,58.4 103.6,154.6 0,213.8 l -361.8,205.6 c -0.1,0 -6.7,4.1 -6.7,4.1 z"
         clip-rule="evenodd"
         id="path30399"
         style="fill:url(#c)" />
      <path
         fill="url(#b)"
         fill-rule="evenodd"
         d="M 1268.7,1264.2 956.3,951.7 33.7,1874.3 c 33.7,36.2 90.4,40.3 153.8,4.9 l 1081.2,-615"
         clip-rule="evenodd"
         id="path30406"
         style="fill:url(#b)" />
      <path
         fill="url(#a)"
         fill-rule="evenodd"
         d="M 1268.7,639.3 187.5,25.1 C 124.2,-11.1 67.4,-6.2 33.7,30 l 922.5,921.7 z"
         clip-rule="evenodd"
         id="path30419"
         style="fill:url(#a)" />
      <path
         fill-rule="evenodd"
         d="M 1262.1,1257.6 188.3,1867.7 c -60,34.5 -113.5,32.1 -148,0.8 l -5.8,5.8 5.8,4.9 c 34.5,31.2 88,33.7 148,-0.8 l 1081.2,-614.2 z"
         clip-rule="evenodd"
         opacity="0.2"
         id="path30421" />
      <path
         fill-rule="evenodd"
         d="m 1630.5,1047.9 -369.2,209.7 6.6,6.6 361.8,-205.6 c 51.8,-29.6 77.3,-68.2 77.3,-106.9 -3.3,35.4 -29.6,69.1 -76.5,96.2 z"
         clip-rule="evenodd"
         opacity="0.12"
         id="path30423" />
      <path
         fill="#ffffff"
         fill-rule="evenodd"
         d="m 187.5,35.8 1443,819.8 c 46.9,26.3 73.2,60.8 77.3,96.2 0,-38.6 -25.5,-77.3 -77.3,-106.9 L 187.5,25.1 C 83.9,-34.1 0,15.2 0,133.6 v 10.7 C 0,25.9 83.9,-22.6 187.5,35.8 Z"
         clip-rule="evenodd"
         opacity="0.25"
         id="path30425" />
    </g>
    <path
       d="m 2174,899.8 c 0,-262.1 220.3,-475.5 482.4,-475.5 144.9,0 248,56.9 325.8,131 l -91.6,91.6 c -55.6,-52.2 -131,-92.7 -234.3,-92.7 -191.4,0 -341,154.1 -341,345.5 0,191.4 149.6,345.7 340.9,345.7 124.1,0 194.7,-49.8 240,-95.2 37.1,-37.1 61.4,-90.4 70.8,-163.5 H 2656.4 V 857.1 h 437.2 c 4.6,23.2 7,51 7,81.1 0,97.3 -26.7,218 -112.6,303.9 -83.6,87 -190.2,133.4 -331.7,133.4 -262.2,0 -482.5,-213.2 -482.5,-475.5 z M 3454,763 c -169.3,0 -307.5,128.8 -307.5,306.1 0,176.4 138.1,306.1 307.5,306.1 169.4,0 307.3,-129.9 307.3,-306.2 0,-177.3 -138,-306.1 -307.3,-306 z m 0,491.8 c -92.7,0 -172.8,-76.5 -172.8,-185.6 0,-110.2 80,-185.6 172.8,-185.6 92.7,0 172.7,75.3 172.7,185.6 0,109 -79.9,185.6 -172.7,185.6 z M 4124.5,763 c -169.3,0 -307.3,128.8 -307.3,306.1 0,176.4 138,306.1 307.3,306.1 169.3,0 307.3,-129.9 307.3,-306.2 0,-177.3 -137.9,-306.1 -307.3,-306 z m 0,491.8 c -92.7,0 -172.8,-76.5 -172.8,-185.6 0,-110.2 80,-185.6 172.8,-185.6 92.7,0 172.8,75.3 172.8,185.6 0,109 -80.1,185.6 -172.8,185.6 z m 822.9,-473.2 v 49.8 h -4.6 c -30.1,-36.1 -88.1,-68.5 -161.1,-68.5 -153.1,0 -293.6,134.6 -293.6,307.5 0,171.5 140.4,305 293.6,305 73,0 131,-32.4 161.1,-69.5 h 4.6 v 44 c 0,117.1 -62.6,179.8 -163.5,179.8 -82.4,0 -133.4,-59.2 -154.3,-108.9 l -117.2,48.7 c 33.6,81.1 123,180.9 271.4,180.9 157.6,0 291,-92.9 291,-319 V 781.5 Z m -154.2,473.2 c -92.7,0 -170.6,-77.8 -170.6,-184.4 0,-107.8 77.8,-186.7 170.6,-186.7 91.6,0 163.5,78.8 163.5,186.7 0.1,106.6 -71.8,184.4 -163.5,184.4 z m 374.5,-798 h 134.6 v 900 h -134.6 z m 503.5,798 c -68.4,0 -117.2,-31.4 -148.3,-92.7 l 409.4,-169.5 -14.1,-34.8 C 5892.8,889.5 5815,763 5656.1,763 c -157.7,0 -288.8,124.1 -288.8,306.2 0,171.5 129.9,306.1 303.9,306.1 140.4,0 221.6,-85.7 255.2,-135.7 L 5822,1170.1 c -34.9,51.1 -82.5,84.8 -150.8,84.7 z m -10.5,-373.5 c 53.3,0 98.5,26.7 113.6,64.9 l -273.8,113.7 c -3.4,-118.3 91.7,-178.6 160.2,-178.6 z m 862.2,-424.5 h -321.8 v 900 h 134.3 V 1015.9 H 6523 c 148.9,0 295.3,-107.8 295.3,-279.6 0,-171.5 -146.3,-279.4 -295.1,-279.4 z m 3.5,433.8 h -191 V 582 h 191 c 100.4,0 157.6,83.3 157.6,154.3 0,69.8 -57.2,154.3 -157.6,154.3 z m 500.2,466.2 v -900 h -134.3 v 900 z m 603.3,-1.6 v -345 c 0,-159.8 -119.4,-248.9 -273.5,-248.9 -97.1,0 -197.8,42.9 -239.5,137.8 l 119.2,49.7 c 25.5,-49.7 72.9,-66 122.8,-66 69.4,0 140,41.7 141.1,115.9 v 9.3 c -24.3,-13.9 -76.3,-34.8 -140.1,-34.8 -128.5,0 -259.3,70.6 -259.3,202.6 0,120.5 105.4,198 223.5,198 90.4,0 140.1,-40.5 171.3,-87.9 h 4.6 v 69.5 h 129.8 z m -289.5,-100.6 c -44,0 -105.4,-22 -105.4,-76.3 0,-69.5 76.5,-96.3 142.5,-96.3 59.1,0 86.8,12.7 122.8,30.1 -10.3,80.8 -78.6,141.5 -159.9,142.5 z m 761.8,-473.6 -154,390.1 h -4.6 L 7783.8,781 h -144.7 l 239.6,545.4 -136.7,303.3 h 140.1 L 8251.4,781 Z"
       class="st7"
       id="path30427"
       style="fill:#888888;fill-opacity:1" />
  </g>
</svg>
