<?xml version="1.0" encoding="UTF-8" standalone="no"?>
<svg
   width="498"
   height="210"
   version="1.1"
   id="svg33777"
   sodipodi:docname="slack.svg"
   inkscape:version="1.2.2 (b0a8486541, 2022-12-01)"
   xmlns:inkscape="http://www.inkscape.org/namespaces/inkscape"
   xmlns:sodipodi="http://sodipodi.sourceforge.net/DTD/sodipodi-0.dtd"
   xmlns="http://www.w3.org/2000/svg"
   xmlns:svg="http://www.w3.org/2000/svg">
  <defs
     id="defs33781" />
  <sodipodi:namedview
     id="namedview33779"
     pagecolor="#ffffff"
     bordercolor="#666666"
     borderopacity="1.0"
     inkscape:showpageshadow="2"
     inkscape:pageopacity="0.0"
     inkscape:pagecheckerboard="0"
     inkscape:deskcolor="#d1d1d1"
     showgrid="false"
     inkscape:zoom="0.65699685"
     inkscape:cx="251.90379"
     inkscape:cy="63.927247"
     inkscape:window-width="1278"
     inkscape:window-height="703"
     inkscape:window-x="0"
     inkscape:window-y="0"
     inkscape:window-maximized="1"
     inkscape:current-layer="svg33777" />
  <g
     fill="none"
     id="g33775"
     transform="translate(0,41.6)">
    <path
       d="m 159.5,99.5 6.2,-14.4 c 6.7,5 15.6,7.6 24.4,7.6 6.5,0 10.6,-2.5 10.6,-6.3 -0.1,-10.6 -38.9,-2.3 -39.2,-28.9 -0.1,-13.5 11.9,-23.9 28.9,-23.9 10.1,0 20.2,2.5 27.4,8.2 L 212,56.5 c -6.6,-4.2 -14.8,-7.2 -22.6,-7.2 -5.3,0 -8.8,2.5 -8.8,5.7 0.1,10.4 39.2,4.7 39.6,30.1 0,13.8 -11.7,23.5 -28.5,23.5 -12.3,0 -23.6,-2.9 -32.2,-9.1 M 397.4,79.9 c -3.1,5.4 -8.9,9.1 -15.6,9.1 -9.9,0 -17.9,-8 -17.9,-17.9 0,-9.9 8,-17.9 17.9,-17.9 6.7,0 12.5,3.7 15.6,9.1 l 17.1,-9.5 c -6.4,-11.4 -18.7,-19.2 -32.7,-19.2 -20.7,0 -37.5,16.8 -37.5,37.5 0,20.7 16.8,37.5 37.5,37.5 14.1,0 26.3,-7.7 32.7,-19.2 z M 228.8,2.5 h 21.4 v 104.7 h -21.4 z m 194.1,0 v 104.7 h 21.4 V 75.8 l 25.4,31.4 h 27.4 L 464.8,69.9 494.7,35.1 H 468.5 L 444.3,64 V 2.5 Z M 313.8,80.1 c -3.1,5.1 -9.5,8.9 -16.7,8.9 -9.9,0 -17.9,-8 -17.9,-17.9 0,-9.9 8,-17.9 17.9,-17.9 7.2,0 13.6,4 16.7,9.2 z m 0,-45 v 8.5 c -3.5,-5.9 -12.2,-10 -21.3,-10 -18.8,0 -33.6,16.6 -33.6,37.4 0,20.8 14.8,37.6 33.6,37.6 9.1,0 17.8,-4.1 21.3,-10 v 8.5 h 21.4 v -72 z"
       fill="#000000"
       id="path33765" />
    <path
       d="M 27.2,80 C 27.2,87.3 21.3,93.2 14,93.2 6.7,93.2 0.8,87.3 0.8,80 0.8,72.7 6.7,66.8 14,66.8 h 13.2 z m 6.6,0 c 0,-7.3 5.9,-13.2 13.2,-13.2 7.3,0 13.2,5.9 13.2,13.2 v 33 c 0,7.3 -5.9,13.2 -13.2,13.2 -7.3,0 -13.2,-5.9 -13.2,-13.2 z"
       fill="#e01e5a"
       id="path33767" />
    <path
       d="M 47,27 C 39.7,27 33.8,21.1 33.8,13.8 33.8,6.5 39.7,0.6 47,0.6 c 7.3,0 13.2,5.9 13.2,13.2 V 27 Z m 0,6.7 c 7.3,0 13.2,5.9 13.2,13.2 0,7.3 -5.9,13.2 -13.2,13.2 H 13.9 C 6.6,60.1 0.7,54.2 0.7,46.9 0.7,39.6 6.6,33.7 13.9,33.7 Z"
       fill="#36c5f0"
       id="path33769" />
    <path
       d="m 99.9,46.9 c 0,-7.3 5.9,-13.2 13.2,-13.2 7.3,0 13.2,5.9 13.2,13.2 0,7.3 -5.9,13.2 -13.2,13.2 H 99.9 Z m -6.6,0 c 0,7.3 -5.9,13.2 -13.2,13.2 -7.3,0 -13.2,-5.9 -13.2,-13.2 V 13.8 c 0,-7.3 5.9,-13.2 13.2,-13.2 7.3,0 13.2,5.9 13.2,13.2 z"
       fill="#2eb67d"
       id="path33771" />
    <path
       d="m 80.1,99.8 c 7.3,0 13.2,5.9 13.2,13.2 0,7.3 -5.9,13.2 -13.2,13.2 -7.3,0 -13.2,-5.9 -13.2,-13.2 V 99.8 Z m 0,-6.6 c -7.3,0 -13.2,-5.9 -13.2,-13.2 0,-7.3 5.9,-13.2 13.2,-13.2 h 33.1 c 7.3,0 13.2,5.9 13.2,13.2 0,7.3 -5.9,13.2 -13.2,13.2 z"
       fill="#ecb22e"
       id="path33773" />
  </g>
</svg>
