<?xml version="1.0" encoding="UTF-8" standalone="no"?>
<svg
   fill="none"
   viewBox="0 0 305 120"
   version="1.1"
   id="svg40748"
   sodipodi:docname="webhooks.svg"
   width="305"
   height="120"
   inkscape:version="1.2.2 (b0a8486541, 2022-12-01)"
   xmlns:inkscape="http://www.inkscape.org/namespaces/inkscape"
   xmlns:sodipodi="http://sodipodi.sourceforge.net/DTD/sodipodi-0.dtd"
   xmlns="http://www.w3.org/2000/svg"
   xmlns:svg="http://www.w3.org/2000/svg">
  <defs
     id="defs40752" />
  <sodipodi:namedview
     id="namedview40750"
     pagecolor="#ffffff"
     bordercolor="#666666"
     borderopacity="1.0"
     inkscape:showpageshadow="2"
     inkscape:pageopacity="0.0"
     inkscape:pagecheckerboard="0"
     inkscape:deskcolor="#d1d1d1"
     showgrid="false"
     inkscape:zoom="1.372093"
     inkscape:cx="147.22034"
     inkscape:cy="82.355932"
     inkscape:window-width="1280"
     inkscape:window-height="1057"
     inkscape:window-x="0"
     inkscape:window-y="0"
     inkscape:window-maximized="0"
     inkscape:current-layer="svg40748"
     showguides="false">
    <sodipodi:guide
       position="-58.305085,130.9322"
       orientation="0,-1"
       id="guide43326"
       inkscape:locked="false" />
  </sodipodi:namedview>
  <g
     id="g41608"
     transform="translate(0,16.995368)">
    <path
       fill="#c73a63"
       d="m 43,36.15 c -3.78,6.36 -7.41,12.52 -11.11,18.64 -0.5265,0.6772 -0.8648,1.4814 -0.9807,2.3313 -0.1159,0.8499 -0.0053,1.7153 0.3207,2.5087 0.5167,1.224 0.758,2.5466 0.7066,3.8741 -0.0514,1.3275 -0.394,2.6275 -1.0038,3.8079 -0.6097,1.1803 -1.4716,2.2121 -2.5245,3.0223 C 27.3554,71.1444 26.1372,71.7131 24.84,72 19.6,73.37 14.49,69.93 13.45,64.32 c -0.92,-5 2.93,-9.84 8.41,-10.61 0.46,-0.07 0.93,-0.07 1.7,-0.13 l 8.33,-14 C 26.65,34.37 23.53,28.28 24.22,20.73 24.6151,15.5239 26.8982,10.6413 30.64,7.00004 34.1665,3.49352 38.7864,1.29881 43.7324,0.780378 48.6785,0.261946 53.653,1.45099 57.83,4.15004 66.13,9.48004 69.94,19.88 66.7,28.77 L 59.09,26.7 c 1,-4.94 0.27,-9.39 -3.07,-13.19 C 53.8863,11.1171 50.953,9.58462 47.77,9.20003 44.5973,8.77279 41.3764,9.49466 38.6896,11.2352 36.0027,12.9756 34.0272,15.6199 33.12,18.69 31,25.87 34.22,31.73 43,36.15 Z"
       id="path40726" />
    <path
       fill="#4b4b4b"
       d="m 53.84,28.6301 8.06,14.21 c 13.56,-4.2 23.78,3.31 27.45,11.35 2.1693,4.668 2.6267,9.9505 1.292,14.9218 -1.3347,4.9714 -4.3764,9.3145 -8.592,12.2682 -8.93,6.15 -20.22,5.1 -28.14,-2.8 l 6.21,-5.2 c 7.82,5.06 14.65,4.82 19.72,-1.17 2.0926,-2.4938 3.2213,-5.6555 3.1809,-8.9108 -0.0403,-3.2553 -1.2471,-6.388 -3.4009,-8.8292 -5.14,-5.78 -12,-6 -20.34,-0.41 -3.45,-6.12 -7,-12.2 -10.3,-18.36 -0.4327,-0.9877 -1.1128,-1.8472 -1.9747,-2.4954 -0.8618,-0.6481 -1.8763,-1.063 -2.9453,-1.2046 -1.9838,-0.3692 -3.7788,-1.4134 -5.0802,-2.9554 -1.3015,-1.5421 -2.0292,-3.487 -2.0598,-5.5046 -0.1049,-1.9505 0.4124,-3.8839 1.4773,-5.5214 1.0649,-1.6375 2.6224,-2.8945 4.4478,-3.5897 1.8254,-0.6953 3.8244,-0.7928 5.7088,-0.2786 1.8844,0.5142 3.5568,1.6137 4.7761,3.1397 1.0024,1.1625 1.6786,2.57 1.9597,4.079 0.2811,1.509 0.1569,3.0656 -0.3597,4.511 -0.29,0.86 -0.68,1.71 -1.09,2.75 z"
       id="path40728" />
    <path
       fill="#4a4a4a"
       d="M 60.21,67.0801 H 43.88 c -1.56,6.44 -4.94,11.63 -10.77,14.94 -4.4124,2.5486 -9.579,3.4687 -14.6,2.6 C 13.7442,83.7413 9.39731,81.3258 6.1341,77.7429 2.87089,74.1601 0.870919,69.6071 0.439994,64.7801 0.0770046,59.5843 1.56918,54.4283 4.651,50.2295 7.73282,46.0307 12.2044,43.0614 17.27,41.8501 l 2.09,7.58 c -9.23,4.71 -12.42001,10.64 -9.84001,18.06 2.27001,6.53 8.73001,10.11 15.75001,8.72 7.02,-1.39 10.77,-7.36 10.33,-16.92 6.79,0 13.58,-0.07 20.37,0 2.65,0 4.7,-0.23 6.7,-2.57 3.29,-3.85 9.34,-3.5 12.88,0.13 0.8398,0.8779 1.4985,1.9126 1.9384,3.045 0.4399,1.1325 0.6525,2.3405 0.6255,3.5551 -0.0269,1.2145 -0.2928,2.4119 -0.7825,3.5238 -0.4896,1.1118 -1.1935,2.1163 -2.0714,2.9561 -0.8779,0.8398 -1.9126,1.4985 -3.045,1.9384 -1.1325,0.4399 -2.3405,0.6525 -3.5551,0.6256 -1.2146,-0.027 -2.412,-0.2929 -3.5238,-0.7826 -1.1118,-0.4896 -2.1163,-1.1935 -2.9561,-2.0714 -0.6995,-0.8195 -1.357,-1.674 -1.97,-2.56 z"
       id="path40730" />
    <path
       fill="#4b4b4b"
       d="m 112,34.0601 h 6.27 l 3.6,17 3.69,-17 H 132 l -6.86,23.65 h -6.34 l -3.71,-17.23 -3.75,17.23 h -6.42 l -6.64,-23.65 h 6.64 l 3.69,17 z"
       id="path40732" />
    <path
       fill="#4b4b4b"
       d="m 149.22,34.54 c 1.669,0.7537 3.088,1.9679 4.09,3.5 0.99,1.4658 1.633,3.1382 1.88,4.89 0.188,1.5558 0.255,3.1239 0.2,4.69 h -17.22 c 0.093,2.3733 0.917,4.04 2.47,5 1.028,0.6161 2.212,0.9249 3.41,0.89 0.967,0.0771 1.935,-0.1405 2.775,-0.6243 0.841,-0.4838 1.516,-1.2109 1.935,-2.0857 h 6.31 c -0.285,1.6322 -1.088,3.1293 -2.29,4.27 -2.12,2.3 -5.087,3.45 -8.9,3.45 -3.033,0.0402 -5.982,-0.9902 -8.33,-2.91 -2.407,-1.94 -3.61,-5.0967 -3.61,-9.47 0,-4.1 1.087,-7.24 3.26,-9.42 1.11,-1.0967 2.434,-1.9537 3.89,-2.5179 1.455,-0.5642 3.01,-0.8236 4.57,-0.7621 1.91,-0.0324 3.806,0.3426 5.56,1.1 z M 140,39.89 c -0.927,1.0122 -1.505,2.295 -1.65,3.66 H 149 c -0.006,-0.7029 -0.155,-1.3972 -0.439,-2.0404 -0.284,-0.6431 -0.696,-1.2215 -1.211,-1.6996 -1.023,-0.8657 -2.33,-1.3217 -3.67,-1.28 -0.674,-0.039 -1.349,0.0616 -1.982,0.2956 -0.633,0.2341 -1.211,0.5964 -1.698,1.0644 z"
       id="path40734" />
    <path
       fill="#4b4b4b"
       d="m 178.21,36.91 c 1.852,2.5042 2.787,5.5685 2.65,8.68 0.127,3.2485 -0.792,6.4519 -2.62,9.14 -1.39,1.7583 -3.357,2.9686 -5.552,3.4169 -2.196,0.4484 -4.48,0.1059 -6.448,-0.9669 -0.909,-0.665 -1.692,-1.4881 -2.31,-2.43 v 3 h -6.1 V 25.77 H 164 v 11.37 c 0.688,-1.0064 1.573,-1.8635 2.6,-2.52 1.292,-0.7667 2.779,-1.1419 4.28,-1.08 1.402,-0.0602 2.797,0.2141 4.072,0.8001 1.274,0.586 2.391,1.4669 3.258,2.5699 z M 173,51.31 c 0.956,-1.5163 1.424,-3.2894 1.34,-5.08 0.043,-1.419 -0.181,-2.8335 -0.66,-4.17 -0.317,-0.9516 -0.938,-1.7727 -1.767,-2.3365 -0.83,-0.5639 -1.822,-0.8392 -2.823,-0.7835 -1.003,-0.0637 -2,0.2003 -2.841,0.7522 -0.84,0.5518 -1.479,1.3618 -1.819,2.3078 -0.483,1.3493 -0.707,2.7777 -0.66,4.21 -0.061,1.7657 0.413,3.5086 1.36,5 0.457,0.6621 1.077,1.1944 1.801,1.545 0.724,0.3505 1.526,0.5073 2.329,0.455 0.734,0.03 1.463,-0.129 2.118,-0.4617 0.655,-0.3326 1.213,-0.8279 1.622,-1.4383 z"
       id="path40736" />
    <path
       fill="#4b4b4b"
       d="m 201,34.1901 c 1.17,0.4909 2.184,1.2933 2.93,2.32 0.613,0.7998 1.021,1.7368 1.19,2.73 0.177,1.5166 0.251,3.0434 0.22,4.57 v 13.9 H 199 v -14.4 c 0.044,-1.0649 -0.179,-2.1237 -0.65,-3.08 -0.31,-0.559 -0.778,-1.0139 -1.345,-1.3075 -0.568,-0.2935 -1.21,-0.4127 -1.845,-0.3425 -0.702,-0.0436 -1.403,0.0827 -2.046,0.3682 -0.642,0.2855 -1.206,0.7218 -1.644,1.2718 -0.923,1.3791 -1.366,3.0239 -1.26,4.68 v 12.82 H 184 v -31.88 h 6.18 v 11.28 c 0.74,-1.2311 1.816,-2.2264 3.1,-2.87 1.162,-0.539 2.429,-0.8155 3.71,-0.81 1.374,-0.0282 2.739,0.2271 4.01,0.75 z"
       id="path40738" />
    <path
       fill="#4b4b4b"
       d="m 229.44,54.82 c -2,2.4667 -5.03,3.7 -9.09,3.7 -4.06,0 -7.09,-1.2333 -9.09,-3.7 -1.942,-2.5547 -2.994,-5.6756 -2.994,-8.885 0,-3.2093 1.052,-6.3302 2.994,-8.885 2,-2.5 5.03,-3.75 9.09,-3.75 4.06,0 7.09,1.25 9.09,3.75 1.944,2.5541 2.997,5.6753 2.997,8.885 0,3.2098 -1.053,6.331 -2.997,8.885 z m -4.95,-3.42 c 1.061,-1.6227 1.57,-3.5448 1.45,-5.48 0.123,-1.9323 -0.386,-3.8523 -1.45,-5.47 -0.516,-0.6003 -1.156,-1.0821 -1.876,-1.4124 -0.72,-0.3303 -1.502,-0.5013 -2.294,-0.5013 -0.792,0 -1.574,0.171 -2.294,0.5013 -0.72,0.3303 -1.36,0.8121 -1.876,1.4124 -1.072,1.6146 -1.585,3.5361 -1.46,5.47 -0.123,1.937 0.39,3.8611 1.46,5.48 0.514,0.6034 1.154,1.088 1.874,1.4202 0.72,0.3323 1.503,0.5044 2.296,0.5044 0.793,0 1.576,-0.1721 2.296,-0.5044 0.72,-0.3322 1.36,-0.8168 1.874,-1.4202 z"
       id="path40740" />
    <path
       fill="#4b4b4b"
       d="m 255.37,54.82 c -2,2.4667 -5.03,3.7 -9.09,3.7 -4.06,0 -7.09,-1.2333 -9.09,-3.7 -1.944,-2.554 -2.997,-5.6752 -2.997,-8.885 0,-3.2097 1.053,-6.3309 2.997,-8.885 2,-2.5 5.03,-3.75 9.09,-3.75 4.06,0 7.09,1.25 9.09,3.75 1.944,2.5541 2.997,5.6753 2.997,8.885 0,3.2098 -1.053,6.331 -2.997,8.885 z m -4.95,-3.42 c 1.061,-1.6227 1.57,-3.5448 1.45,-5.48 0.123,-1.9323 -0.386,-3.8523 -1.45,-5.47 -0.516,-0.6003 -1.156,-1.0821 -1.876,-1.4124 -0.72,-0.3303 -1.502,-0.5013 -2.294,-0.5013 -0.792,0 -1.574,0.171 -2.294,0.5013 -0.72,0.3303 -1.36,0.8121 -1.876,1.4124 -1.072,1.6146 -1.585,3.5361 -1.46,5.47 -0.123,1.937 0.389,3.8611 1.46,5.48 0.514,0.6034 1.154,1.088 1.874,1.4202 0.72,0.3323 1.503,0.5044 2.296,0.5044 0.793,0 1.576,-0.1721 2.296,-0.5044 0.72,-0.3322 1.36,-0.8168 1.874,-1.4202 z"
       id="path40742" />
    <path
       fill="#4b4b4b"
       d="m 261.43,25.8401 h 6.08 v 17.25 l 7.8,-8.92 H 283 l -8.48,8.83 8.81,14.73 h -7.53 l -5.73,-10.11 -2.56,2.66 v 7.44 h -6.08 z"
       id="path40744" />
    <path
       fill="#4b4b4b"
       d="m 289.24,50.1599 c 0.035,0.849 0.332,1.6664 0.85,2.34 0.773,0.8267 2.197,1.24 4.27,1.24 0.999,0.0451 1.994,-0.1396 2.91,-0.54 0.302,-0.1353 0.561,-0.3504 0.75,-0.6221 0.189,-0.2716 0.3,-0.5896 0.321,-0.9197 0.022,-0.33 -0.047,-0.6598 -0.199,-0.9537 -0.151,-0.2939 -0.38,-0.5409 -0.662,-0.7145 -2.092,-0.8272 -4.259,-1.4533 -6.47,-1.87 -2.062,-0.3791 -4.007,-1.2353 -5.68,-2.5 -0.568,-0.5456 -1.01,-1.2086 -1.295,-1.9427 -0.284,-0.734 -0.406,-1.5215 -0.355,-2.3073 -0.004,-1.0694 0.224,-2.1269 0.67,-3.0991 0.446,-0.9722 1.097,-1.8358 1.91,-2.5309 1.72,-1.5666 4.137,-2.35 7.25,-2.35 2.529,-0.1085 5.037,0.5055 7.23,1.77 1.86,1.18 2.93,3.2167 3.21,6.11 h -6.18 c -0.043,-0.6801 -0.275,-1.3346 -0.67,-1.89 -0.448,-0.4582 -0.993,-0.8095 -1.596,-1.0276 -0.602,-0.2182 -1.246,-0.2976 -1.884,-0.2324 -1.001,-0.0842 -2.005,0.1354 -2.88,0.63 -0.254,0.1566 -0.466,0.3737 -0.616,0.6319 -0.15,0.2583 -0.234,0.5496 -0.244,0.8481 -0.018,0.3179 0.059,0.6339 0.221,0.908 0.162,0.2742 0.402,0.4941 0.689,0.632 2.101,0.7515 4.262,1.3236 6.46,1.71 2.045,0.3754 3.956,1.2824 5.54,2.63 0.594,0.5762 1.062,1.269 1.375,2.0348 0.313,0.7658 0.465,1.5881 0.445,2.4152 0.03,1.0923 -0.189,2.1772 -0.641,3.1719 -0.452,0.9947 -1.126,1.8731 -1.969,2.5681 -1.747,1.48 -4.447,2.22 -8.1,2.22 -3.653,0 -6.403,-0.7833 -8.25,-2.35 -0.861,-0.7401 -1.546,-1.6624 -2.006,-2.7002 -0.46,-1.0378 -0.684,-2.165 -0.654,-3.2998 h 6.27 z"
       id="path40746" />
  </g>
</svg>
