<?xml version="1.0" encoding="UTF-8" standalone="no"?>
<svg
   version="1.1"
   id="svg2"
   width="1330"
   height="700"
   viewBox="0 0 1330 700"
   sodipodi:docname="yelp.svg"
   inkscape:version="1.2.2 (b0a8486541, 2022-12-01)"
   xmlns:inkscape="http://www.inkscape.org/namespaces/inkscape"
   xmlns:sodipodi="http://sodipodi.sourceforge.net/DTD/sodipodi-0.dtd"
   xmlns="http://www.w3.org/2000/svg"
   xmlns:svg="http://www.w3.org/2000/svg"
   xmlns:rdf="http://www.w3.org/1999/02/22-rdf-syntax-ns#"
   xmlns:cc="http://creativecommons.org/ns#"
   xmlns:dc="http://purl.org/dc/elements/1.1/">
  <title
     id="title945">Yelp (2021)</title>
  <metadata
     id="metadata8">
    <rdf:RDF>
      <cc:Work
         rdf:about="">
        <dc:format>image/svg+xml</dc:format>
        <dc:type
           rdf:resource="http://purl.org/dc/dcmitype/StillImage" />
        <dc:title>Yelp (2021)</dc:title>
      </cc:Work>
    </rdf:RDF>
  </metadata>
  <defs
     id="defs6" />
  <sodipodi:namedview
     pagecolor="#ffffff"
     bordercolor="#666666"
     borderopacity="1"
     objecttolerance="10"
     gridtolerance="10"
     guidetolerance="10"
     inkscape:pageopacity="0"
     inkscape:pageshadow="2"
     inkscape:window-width="1278"
     inkscape:window-height="1408"
     id="namedview4"
     showgrid="false"
     inkscape:zoom="0.38749452"
     inkscape:cx="886.46415"
     inkscape:cy="-34.839202"
     inkscape:window-x="0"
     inkscape:window-y="0"
     inkscape:window-maximized="1"
     inkscape:current-layer="g10"
     inkscape:showpageshadow="2"
     inkscape:pagecheckerboard="0"
     inkscape:deskcolor="#d1d1d1" />
  <g
     inkscape:groupmode="layer"
     inkscape:label="Image"
     id="g10">
    <g
       id="g33701"
       transform="translate(0,89.999996)">
      <g
         transform="matrix(14.051651,0,0,-16.977255,1129.4578,202.01524)"
         id="g1398"
         style="fill:#ff1a1a;fill-opacity:1">
        <path
           style="opacity:1;fill:#ff1a1a;fill-opacity:1;stroke:none;stroke-width:0.0851164px;stroke-linecap:butt;stroke-linejoin:miter;stroke-opacity:1"
           d="M -2.2525579,-0.90713213 C -1.0802304,-2.6783369 1.3910872,-2.4845874 1.5284047,0.15119655 L 1.986416,8.9426382 C 2.0570718,10.298864 1.0322284,12.036599 -3.850602,10.989459 -8.7334323,9.9423191 -8.2703489,8.1848153 -7.5408425,7.0826444 Z"
           id="path877"
           sodipodi:nodetypes="ssszss" />
        <path
           style="opacity:1;fill:#ff1a1a;fill-opacity:1;stroke:none;stroke-width:0.0611927px;stroke-linecap:butt;stroke-linejoin:miter;stroke-opacity:1"
           d="M 2.911719,-1.7599124 C 1.6835818,-2.7955425 2.3092877,-4.7606621 4.5818293,-4.2993988 l 6.8578427,1.3919529 c 1.169322,0.2373401 3.433763,0.6534848 1.118246,3.9673062 -2.315517,3.3138213 -3.8424953,2.0742163 -4.6067302,1.4297731 z"
           id="path877-3"
           sodipodi:nodetypes="ssszss" />
        <path
           style="opacity:1;fill:#ff1a1a;fill-opacity:1;stroke:none;stroke-width:0.0611927px;stroke-linecap:butt;stroke-linejoin:miter;stroke-opacity:1"
           d="m -2.760317,-5.6699214 c 1.7101054,0.3212198 2.27608004,2.148304 0.078897,2.8141271 l -6.4088834,1.94211527 c -1.1305476,0.34259525 -3.3919686,1.17532483 -3.7591366,-2.64032187 -0.367168,-3.8156469 1.874924,-3.6588451 2.9390734,-3.4589592 z"
           id="path877-3-7"
           sodipodi:nodetypes="ssszss" />
        <path
           style="opacity:1;fill:#ff1a1a;fill-opacity:1;stroke:none;stroke-width:0.0611927px;stroke-linecap:butt;stroke-linejoin:miter;stroke-opacity:1"
           d="m 0.78029864,-8.1810909 c 0.0969548,1.8809389 -1.92300954,2.4257631 -3.29044934,0.8548171 l -3.9086807,-4.4903812 c -0.7774057,-0.893101 -2.2645795,-2.497093 2.087383,-3.796054 4.35196265,-1.298962 4.75148423,0.442464 4.80772805,1.533603 z"
           id="path877-3-7-7"
           sodipodi:nodetypes="ssszss" />
        <path
           style="opacity:1;fill:#ff1a1a;fill-opacity:1;stroke:none;stroke-width:0.0611927px;stroke-linecap:butt;stroke-linejoin:miter;stroke-opacity:1"
           d="m 2.5986948,-7.8139284 c -1.0741793,1.6596831 0.5704813,2.8753585 2.6249368,1.9487064 l 5.8724394,-2.6487354 c 1.167983,-0.5268131 3.226919,-1.4279007 -0.01703,-4.1570626 -3.2439447,-2.729163 -4.4378004,-1.388934 -5.0609353,-0.426146 z"
           id="path877-3-7-7-0"
           sodipodi:nodetypes="ssszss" />
      </g>
      <path
         style="opacity:1;fill:#000000;fill-opacity:1;stroke-width:30.3044;stroke-linecap:round;paint-order:stroke fill markers"
         d="m 60.109114,441.15399 c 3.460193,2.28489 13.720088,5.65731 23.360588,5.60672 18.069208,-0.0949 33.472108,-39.00045 33.472108,-39.00045 L 28.2022,243.58924 C 8.7622598,207.62474 65.126338,163.99752 91.368043,217.72877 L 149.6077,336.97746 197.34179,220.05169 c 20.9632,-51.34986 85.50247,-23.17659 61.22327,29.60965 L 171.42378,439.1182 C 161.78082,460.08328 126.88233,512.64915 69.232498,509.11119 50.332845,507.95132 22.358852,498.49151 12.164585,476.52388 2.328798,455.32873 27.353537,419.52445 60.109114,441.15399 Z"
         id="path841"
         sodipodi:nodetypes="sscsscssssss" />
      <path
         style="opacity:1;fill:#000000;fill-opacity:1;stroke-width:26.7945;stroke-linecap:round;paint-order:stroke fill markers"
         d="m 271.21344,313.86734 c 0,-33.65206 13.8186,-66.02372 35.85774,-88.14236 21.63192,-21.70995 52.95718,-33.62791 84.31278,-33.41754 25.89696,0.17373 56.03576,11.74524 72.77984,27.17813 29.86958,27.53059 36.21163,50.14852 40.03349,78.66518 3.00448,22.41781 -12.47097,36.99052 -33.22273,36.9741 l -139.48214,-0.1104 c 0,0 12.72295,42.58046 53.68163,42.58046 16.04207,0 29.61418,-6.0185 45.19207,-13.63703 39.91953,-19.52305 61.0176,14.50419 39.2446,39.57074 -18.92531,21.78808 -46.93714,29.67857 -88.24659,29.67857 -62.36411,0 -110.15069,-55.46292 -110.15069,-119.33984 z m 119.44287,-65.10613 c -48.84846,-0.40154 -58.83796,44.84323 -58.83796,44.84323 l 113.95479,-0.005 c 0,0 -8.498,-44.45485 -55.11683,-44.83806 z"
         id="path843"
         sodipodi:nodetypes="sssssscssssssccs" />
      <path
         style="fill:#000000;fill-opacity:1;stroke-width:28.378;stroke-linecap:round;paint-order:stroke fill markers"
         d="m 558.82163,437.22452 c -8.98576,-1.84983 -16.28771,-7.23038 -19.9807,-14.72308 -3.82602,-7.76262 -3.53408,4.54626 -3.53408,-149.00189 0,-153.50262 -0.28813,-141.36515 3.53778,-149.02187 3.82625,-7.65745 11.19448,-12.99848 20.45861,-14.82991 6.01594,-1.18929 16.50876,-0.73083 21.83434,0.95399 9.93824,3.14409 16.88316,10.65448 19.35766,20.93383 0.85962,3.57095 0.9005,10.02581 0.9005,142.20518 0,131.39183 -0.0451,138.63629 -0.88473,141.82833 -3.06761,11.66326 -11.50104,19.52919 -23.2924,21.7249 -4.85238,0.90362 -13.83492,0.86968 -18.39698,-0.0695 z"
         id="path845" />
      <path
         style="opacity:1;fill:#000000;fill-opacity:1;stroke-width:27.4737;stroke-linecap:round;paint-order:stroke fill markers"
         d="m 640.05186,479.11832 0.0256,-251.71049 c 0.005,-46.42358 63.88369,-40.36823 64.77181,-2.38877 l 0.0682,2.91619 c 0,0 29.72893,-35.17984 76.92115,-35.17984 57.0617,0 107.92002,54.31122 107.92002,124.01248 0,56.53559 -43.32521,117.22585 -114.43712,117.22585 -40.51425,0 -69.52997,-35.18133 -69.52997,-35.18133 l 0.0154,80.5605 c 0.008,39.71212 -65.7595,42.03199 -65.75518,-0.25459 z M 829.01732,315.92051 c 0.66215,-33.75595 -25.14806,-68.48247 -62.01128,-68.48247 -36.86319,0 -61.34005,34.08135 -61.37388,67.10589 -0.0338,33.02454 25.94932,65.98384 60.1,65.98384 34.15069,0 62.62301,-30.85133 63.28516,-64.60726 z"
         id="path847"
         sodipodi:nodetypes="ssscssscsszzzzz" />
    </g>
  </g>
</svg>
