<?xml version="1.0" encoding="UTF-8" standalone="no"?>
<svg
   width="500"
   height="220"
   viewBox="0 0 500 220"
   fill="none"
   version="1.1"
   id="svg38348"
   sodipodi:docname="zapier.svg"
   inkscape:version="1.2.2 (b0a8486541, 2022-12-01)"
   xmlns:inkscape="http://www.inkscape.org/namespaces/inkscape"
   xmlns:sodipodi="http://sodipodi.sourceforge.net/DTD/sodipodi-0.dtd"
   xmlns="http://www.w3.org/2000/svg"
   xmlns:svg="http://www.w3.org/2000/svg">
  <defs
     id="defs38352" />
  <sodipodi:namedview
     id="namedview38350"
     pagecolor="#ffffff"
     bordercolor="#666666"
     borderopacity="1.0"
     inkscape:showpageshadow="2"
     inkscape:pageopacity="0.0"
     inkscape:pagecheckerboard="0"
     inkscape:deskcolor="#d1d1d1"
     showgrid="false"
     inkscape:zoom="0.43382353"
     inkscape:cx="197.08475"
     inkscape:cy="142.91525"
     inkscape:window-width="1278"
     inkscape:window-height="487"
     inkscape:window-x="0"
     inkscape:window-y="0"
     inkscape:window-maximized="1"
     inkscape:current-layer="svg38348" />
  <g
     id="g40657"
     transform="translate(0,42.253)">
    <path
       d="m 117.414,92.8436 -0.07,-0.2232 44.457,-40.6994 V 32.311 H 90.4769 v 19.61 h 42.6021 l 0.07,0.1879 -44.0225,40.7347 V 112.454 H 162.517 V 92.8436 Z"
       fill="#201515"
       id="path38332" />
    <path
       d="m 206.296,30.4438 c -8.227,0 -14.932,1.2408 -20.115,3.7224 -4.827,2.1627 -8.894,5.726 -11.672,10.2277 -2.657,4.5313 -4.326,9.5735 -4.896,14.7955 l 21.641,3.0414 c 0.783,-4.6109 2.349,-7.8792 4.697,-9.805 2.67,-2.0142 5.96,-3.0319 9.3,-2.8769 4.392,0 7.578,1.1743 9.559,3.5227 1.961,2.3485 2.959,5.6012 2.959,9.8872 v 2.1371 h -20.808 c -10.592,0 -18.201,2.3485 -22.827,7.0455 -4.627,4.697 -6.936,10.8971 -6.928,18.6002 0,7.8909 2.309,13.7624 6.928,17.6134 4.618,3.852 10.427,5.766 17.426,5.742 8.681,0 15.359,-2.986 20.032,-8.959 2.76,-3.671 4.731,-7.8725 5.789,-12.3415 h 0.787 l 2.983,19.6095 h 19.61 V 62.7475 c 0,-10.263 -2.705,-18.2126 -8.114,-23.849 -5.41,-5.6364 -14.193,-8.4547 -26.351,-8.4547 z m 6.858,61.2137 c -3.112,2.595 -7.186,3.8867 -12.259,3.8867 -4.181,0 -7.085,-0.7319 -8.713,-2.1958 -0.793,-0.6926 -1.425,-1.5514 -1.849,-2.5154 -0.424,-0.9639 -0.631,-2.0095 -0.605,-3.0623 -0.047,-0.9929 0.11,-1.9849 0.459,-2.9155 0.349,-0.9306 0.884,-1.7804 1.572,-2.4978 0.744,-0.6979 1.622,-1.2377 2.581,-1.5868 0.959,-0.3492 1.978,-0.5005 2.997,-0.4447 h 20.467 v 1.3504 c 0.042,1.9088 -0.356,3.8016 -1.162,5.5322 -0.807,1.7306 -2,3.2528 -3.488,4.449 z"
       fill="#201515"
       id="path38334" />
    <path
       d="m 359.329,32.311 h -23.168 v 80.154 h 23.168 z"
       fill="#201515"
       id="path38336" />
    <path
       d="m 496.109,32.311 c -6.544,0 -11.703,2.3093 -15.476,6.9281 -2.709,3.3192 -4.768,8.2237 -6.177,14.7133 h -0.681 L 470.746,32.311 h -19.787 v 80.143 h 23.169 V 71.3548 c 0,-5.1823 1.213,-9.1552 3.64,-11.9186 2.426,-2.7634 6.904,-4.1451 13.433,-4.1451 h 8.795 V 32.311 Z"
       fill="#201515"
       id="path38338" />
    <path
       d="m 427.991,34.9311 c -5.409,-3.2174 -12.231,-4.8222 -20.467,-4.8144 -12.963,0 -23.109,3.6911 -30.436,11.0732 -7.328,7.3821 -10.991,17.5589 -10.991,30.5305 -0.187,7.8423 1.525,15.6134 4.99,22.6512 3.172,6.2714 8.112,11.4764 14.209,14.9714 6.137,3.547 13.437,5.324 21.899,5.331 7.32,0 13.434,-1.127 18.342,-3.381 4.615,-2.025 8.633,-5.199 11.672,-9.218 2.894,-3.946 5.043,-8.3871 6.341,-13.1049 l -19.962,-5.5895 c -0.84,3.0679 -2.458,5.8668 -4.697,8.1258 -2.255,2.2546 -6.032,3.3819 -11.332,3.3819 -6.301,0 -10.998,-1.8044 -14.091,-5.4133 -2.242,-2.6068 -3.651,-6.3292 -4.274,-11.1554 h 54.662 c 0.223,-2.2545 0.34,-4.1451 0.34,-5.6716 v -4.9906 c 0.132,-6.7043 -1.253,-13.3518 -4.051,-19.4455 -2.619,-5.5512 -6.856,-10.1806 -12.154,-13.2808 z m -21.136,14.2906 c 9.394,0 14.721,4.6226 15.981,13.8679 h -33.231 c 0.528,-3.0848 1.806,-5.9924 3.723,-8.4663 3.045,-3.6089 7.554,-5.4094 13.527,-5.4016 z"
       fill="#201515"
       id="path38340" />
    <path
       d="m 347.993,0.00751876 c -1.743,-0.05927466 -3.48,0.23241024 -5.108,0.85774024 -1.628,0.625331 -3.113,1.571511 -4.368,2.782351 -1.237,1.22244 -2.207,2.68879 -2.848,4.3059 -0.641,1.61712 -0.939,3.34969 -0.874,5.08799 -0.063,1.7495 0.236,3.4931 0.877,5.122 0.642,1.629 1.612,3.1083 2.85,4.3456 1.239,1.2373 2.719,2.2061 4.348,2.846 1.63,0.6399 3.374,0.9371 5.123,0.8731 1.738,0.0657 3.472,-0.2314 5.089,-0.8723 1.617,-0.6408 3.083,-1.6115 4.305,-2.8501 1.212,-1.2514 2.158,-2.7349 2.781,-4.3614 0.624,-1.6265 0.912,-3.3622 0.847,-5.1029 0.08,-1.7304 -0.201,-3.4585 -0.827,-5.07394 -0.625,-1.61543 -1.58,-3.08269 -2.804,-4.30812 -1.225,-1.22543 -2.691,-2.18209 -4.306,-2.808873 -1.615,-0.62678 -3.343,-0.9098842 -5.073,-0.8312944 z"
       fill="#201515"
       id="path38342" />
    <path
       d="m 300.14,30.1167 c -7.89,0 -14.231,2.4776 -19.022,7.4329 -3.547,3.6715 -6.149,9.1514 -7.809,16.4395 h -0.74 L 269.54,32.3477 H 249.753 V 135.494 h 23.168 V 93.0095 h 0.846 c 0.707,2.8327 1.698,5.5866 2.959,8.2195 1.96,4.289 5.174,7.884 9.218,10.31 4.193,2.288 8.916,3.427 13.691,3.3 9.7,0 17.086,-3.777 22.159,-11.332 5.072,-7.5541 7.609,-18.0949 7.609,-31.6222 0,-13.0655 -2.454,-23.2932 -7.363,-30.6832 -4.908,-7.3899 -12.208,-11.0849 -21.9,-11.0849 z m 2.349,58.0783 c -2.701,3.9142 -6.928,5.8713 -12.682,5.8713 -2.372,0.1095 -4.737,-0.3478 -6.897,-1.3341 -2.161,-0.9863 -4.055,-2.4732 -5.526,-4.3375 -2.999,-3.7654 -4.494,-8.9204 -4.486,-15.4649 v -1.5265 c 0,-6.6463 1.495,-11.7347 4.486,-15.2653 2.99,-3.5305 7.131,-5.2763 12.423,-5.2371 5.856,0 10.11,1.8592 12.764,5.5776 2.654,3.7185 3.981,8.9048 3.981,15.5588 0.016,6.8811 -1.331,12.267 -4.04,16.1577 z"
       fill="#201515"
       id="path38344" />
    <path
       d="M 80.1543,92.8433 H 0 v 19.6337 h 80.1543 z"
       fill="#ff4f00"
       id="path38346" />
  </g>
</svg>
