<?xml version="1.0" encoding="UTF-8" standalone="no"?>
<!-- Uploaded to: SVG Repo, www.svgrepo.com, Generator: SVG Repo Mixer Tools -->

<svg
   fill="#000000"
   width="800px"
   height="800px"
   viewBox="0 0 24 24"
   version="1.1"
   id="svg3853"
   sodipodi:docname="checklist.svg"
   inkscape:version="1.2.2 (b0a8486541, 2022-12-01)"
   xmlns:inkscape="http://www.inkscape.org/namespaces/inkscape"
   xmlns:sodipodi="http://sodipodi.sourceforge.net/DTD/sodipodi-0.dtd"
   xmlns="http://www.w3.org/2000/svg"
   xmlns:svg="http://www.w3.org/2000/svg">
  <defs
     id="defs3857" />
  <sodipodi:namedview
     id="namedview3855"
     pagecolor="#ffffff"
     bordercolor="#666666"
     borderopacity="1.0"
     inkscape:showpageshadow="2"
     inkscape:pageopacity="0.0"
     inkscape:pagecheckerboard="0"
     inkscape:deskcolor="#d1d1d1"
     showgrid="false"
     inkscape:zoom="0.295"
     inkscape:cx="398.30508"
     inkscape:cy="401.69492"
     inkscape:window-width="1278"
     inkscape:window-height="1408"
     inkscape:window-x="0"
     inkscape:window-y="0"
     inkscape:window-maximized="1"
     inkscape:current-layer="svg3853" />
  <path
     d="M3.5 3.75a.25.25 0 01.25-.25h13.5a.25.25 0 01.25.25v10a.75.75 0 001.5 0v-10A1.75 1.75 0 0017.25 2H3.75A1.75 1.75 0 002 3.75v16.5c0 .966.784 1.75 1.75 1.75h7a.75.75 0 000-1.5h-7a.25.25 0 01-.25-.25V3.75z"
     id="path3849"
     style="fill:#1b3a4f;fill-opacity:1;stroke:none;stroke-opacity:1" />
  <path
     d="M6.25 7a.75.75 0 000 1.5h8.5a.75.75 0 000-1.5h-8.5zm-.75 4.75a.75.75 0 01.75-.75h4.5a.75.75 0 010 1.5h-4.5a.75.75 0 01-.75-.75zm16.28 4.53a.75.75 0 10-1.06-1.06l-4.97 4.97-1.97-1.97a.75.75 0 10-1.06 1.06l2.5 2.5a.75.75 0 001.06 0l5.5-5.5z"
     id="path3851"
     style="fill:#1b3a4f;fill-opacity:1;stroke:none;stroke-opacity:1" />
</svg>
