<?xml version="1.0" encoding="UTF-8" standalone="no"?>
<!-- Uploaded to: SVG Repo, www.svgrepo.com, Generator: SVG Repo Mixer Tools -->

<svg
   fill="#000000"
   width="800"
   height="700"
   viewBox="0 0 256 224"
   id="Layer_1"
   version="1.1"
   xml:space="preserve"
   sodipodi:docname="fast.svg"
   inkscape:version="1.2.2 (b0a8486541, 2022-12-01)"
   xmlns:inkscape="http://www.inkscape.org/namespaces/inkscape"
   xmlns:sodipodi="http://sodipodi.sourceforge.net/DTD/sodipodi-0.dtd"
   xmlns="http://www.w3.org/2000/svg"
   xmlns:svg="http://www.w3.org/2000/svg"><defs
   id="defs207" /><sodipodi:namedview
   id="namedview205"
   pagecolor="#ffffff"
   bordercolor="#666666"
   borderopacity="1.0"
   inkscape:showpageshadow="2"
   inkscape:pageopacity="0.0"
   inkscape:pagecheckerboard="0"
   inkscape:deskcolor="#d1d1d1"
   showgrid="false"
   inkscape:zoom="0.724375"
   inkscape:cx="101.46678"
   inkscape:cy="545.98792"
   inkscape:window-width="2560"
   inkscape:window-height="1410"
   inkscape:window-x="0"
   inkscape:window-y="0"
   inkscape:window-maximized="1"
   inkscape:current-layer="Layer_1" />

<g
   id="g202"
   style="stroke:#1b3a4f;stroke-width:2.4189;stroke-dasharray:none;stroke-opacity:1;fill:#1b3a4f;fill-opacity:1"
   transform="translate(0,-16.05)">

<path
   d="M 63.1,106.3 H 9.9 c -2.7,0 -4.9,2.2 -4.9,4.9 0,2.7 2.2,4.9 4.9,4.9 h 53.2 c 2.7,0 4.9,-2.2 4.9,-4.9 0,-2.7 -2.2,-4.9 -4.9,-4.9 z"
   id="path192"
   style="stroke:#1b3a4f;stroke-width:2.4189;stroke-dasharray:none;stroke-opacity:1;fill:#1b3a4f;fill-opacity:1" />

<path
   d="M 63.1,135.2 H 38.6 c -2.7,0 -4.9,2.2 -4.9,4.9 0,2.7 2.2,4.9 4.9,4.9 h 24.5 c 2.7,0 4.9,-2.2 4.9,-4.9 0,-2.7 -2.2,-4.9 -4.9,-4.9 z"
   id="path194"
   style="stroke:#1b3a4f;stroke-width:2.4189;stroke-dasharray:none;stroke-opacity:1;fill:#1b3a4f;fill-opacity:1" />

<path
   d="M 63.1,164.1 H 22.7 c -2.7,0 -4.9,2.2 -4.9,4.9 0,2.7 2.2,4.9 4.9,4.9 h 40.4 c 2.7,0 4.9,-2.2 4.9,-4.9 0,-2.7 -2.2,-4.9 -4.9,-4.9 z"
   id="path196"
   style="stroke:#1b3a4f;stroke-width:2.4189;stroke-dasharray:none;stroke-opacity:1;fill:#1b3a4f;fill-opacity:1" />

<path
   d="m 242.9,103.9 c -4,-8.5 -9.3,-16.2 -15.8,-22.9 -3.1,-3.3 -6.6,-6.3 -10.2,-9 l 6.4,-8.5 c 1.6,-2.2 1.2,-5.3 -1,-6.9 -2.2,-1.6 -5.3,-1.2 -6.9,1 l -6.8,9 c -4.5,-2.7 -9.3,-4.9 -14.2,-6.7 -4.3,-1.5 -8.7,-2.7 -13.2,-3.6 -2.9,-0.5 -5.9,-0.9 -8.8,-1.1 V 40.3 h 9.9 c 2.7,0 4.9,-2.2 4.9,-4.9 0,-2.7 -2.2,-4.9 -4.9,-4.9 h -29.7 c -2.7,0 -4.9,2.2 -4.9,4.9 0,2.7 2.2,4.9 4.9,4.9 h 9.9 v 14.5 c -11.4,0.4 -22.7,3.1 -33.1,7.9 -8.5,4 -16.2,9.2 -23,15.7 -9.5,9 -16.8,20.3 -21.3,32.6 -1.6,4.3 -2.8,8.9 -3.7,13.5 -0.9,4.6 -1.3,9.2 -1.5,13.8 -0.3,13.2 2.5,26.4 8.2,38.4 4,8.4 9.2,16 15.7,22.7 9.1,9.5 20.4,16.8 32.7,21.2 4.3,1.5 8.7,2.7 13.2,3.6 4.5,0.8 9,1.3 13.6,1.4 0.7,0 1.5,0 2.2,0 12.4,0 24.8,-2.7 36,-8 8.4,-3.9 16.1,-9.1 22.8,-15.5 9.6,-9.1 17,-20.4 21.5,-32.8 1.6,-4.3 2.8,-8.9 3.6,-13.4 0.9,-4.6 1.4,-9.3 1.5,-13.9 0.4,-13.1 -2.4,-26.3 -8,-38.1 z m -3.1,50.1 c 0,0 0,0 0,0 -0.8,4.1 -1.8,8 -3.2,11.9 -4,10.9 -10.5,21 -19,29 -5.9,5.6 -12.7,10.3 -20.2,13.7 -10.5,4.9 -22.3,7.4 -33.7,7 -4,-0.1 -8,-0.5 -12,-1.3 -4,-0.7 -7.9,-1.8 -11.7,-3.1 -10.9,-3.9 -20.9,-10.4 -28.9,-18.8 -5.7,-5.9 -10.4,-12.7 -13.9,-20.1 -5,-10.5 -7.5,-22.3 -7.2,-33.9 0.1,-4.1 0.5,-8.2 1.3,-12.2 0.8,-4.1 1.9,-8.1 3.2,-11.9 3.9,-10.9 10.4,-20.8 18.8,-28.8 6,-5.7 12.8,-10.4 20.4,-13.9 9.9,-4.6 20.9,-7 31.8,-7 0.6,0 1.3,0 1.9,0 4,0.1 8,0.5 12,1.3 4,0.7 7.9,1.8 11.7,3.2 10.9,3.9 20.9,10.3 28.9,18.7 5.7,6 10.4,12.8 14,20.3 4.9,10.5 7.4,22.1 7.1,33.7 -0.1,4 -0.5,8.2 -1.3,12.2 z"
   id="path198"
   style="stroke:#1b3a4f;stroke-width:2.4189;stroke-dasharray:none;stroke-opacity:1;fill:#1b3a4f;fill-opacity:1" />

<path
   d="M 196.1,105.9 175,125 c -1.1,-0.7 -2.2,-1.2 -3.4,-1.7 -0.9,-0.3 -1.8,-0.6 -2.7,-0.7 -1,-0.2 -1.9,-0.3 -2.8,-0.3 -2.7,-0.1 -5.5,0.5 -8,1.7 -1.8,0.8 -3.4,1.9 -4.8,3.3 -2,1.9 -3.5,4.2 -4.4,6.8 -0.3,0.9 -0.6,1.8 -0.8,2.8 -0.2,1 -0.3,1.9 -0.3,2.9 -0.1,2.8 0.5,5.5 1.7,8 0.8,1.8 1.9,3.3 3.3,4.7 1.9,2 4.3,3.5 6.8,4.4 0.9,0.3 1.8,0.6 2.7,0.7 0.9,0.2 1.9,0.3 2.8,0.3 0.2,0 0.3,0 0.5,0 2.6,0 5.2,-0.6 7.5,-1.7 1.7,-0.8 3.4,-1.9 4.8,-3.2 2,-1.9 3.5,-4.3 4.5,-6.8 0.3,-0.9 0.6,-1.8 0.8,-2.8 0.2,-1 0.3,-1.9 0.3,-2.9 0.1,-2.7 -0.5,-5.5 -1.7,-8 0,-0.1 -0.1,-0.1 -0.1,-0.2 l 21.2,-19.1 c 2,-1.8 2.2,-5 0.4,-7 -2,-1.9 -5.1,-2.1 -7.2,-0.3 z m -22.7,35.7 c 0,0 0,0 0,0 -0.1,0.4 -0.2,0.9 -0.3,1.3 -0.4,1.1 -1.1,2.2 -2,3 -0.6,0.6 -1.3,1.1 -2.1,1.4 -1.1,0.5 -2.3,0.7 -3.5,0.7 -0.4,0 -0.9,-0.1 -1.3,-0.1 -0.4,-0.1 -0.8,-0.2 -1.2,-0.3 -1.1,-0.4 -2.2,-1.1 -3,-2 -0.6,-0.6 -1.1,-1.3 -1.5,-2.1 -0.5,-1.1 -0.8,-2.3 -0.8,-3.5 0,-0.4 0.1,-0.9 0.1,-1.3 0.1,-0.4 0.2,-0.9 0.3,-1.3 0.4,-1.1 1.1,-2.2 2,-3 0.6,-0.6 1.3,-1.1 2.1,-1.5 1.1,-0.5 2.2,-0.7 3.3,-0.7 0.1,0 0.1,0 0.2,0 0.4,0 0.8,0.1 1.3,0.1 0.4,0.1 0.8,0.2 1.2,0.3 1.2,0.4 2.2,1.1 3,2 0.6,0.6 1.1,1.4 1.5,2.1 0.5,1.1 0.8,2.3 0.7,3.5 0.1,0.5 0,1 0,1.4 z"
   id="path200"
   style="stroke:#1b3a4f;stroke-width:2.4189;stroke-dasharray:none;stroke-opacity:1;fill:#1b3a4f;fill-opacity:1" />

</g>

</svg>
