<?xml version="1.0" encoding="UTF-8" standalone="no"?>
<!-- Created with Inkscape (http://www.inkscape.org/) -->

<svg
   width="117mm"
   height="117mm"
   viewBox="0 0 117 117"
   version="1.1"
   id="svg12798"
   inkscape:export-filename="icon.png"
   inkscape:export-xdpi="48.849998"
   inkscape:export-ydpi="48.849998"
   inkscape:version="1.2.2 (b0a8486541, 2022-12-01)"
   sodipodi:docname="icon.svg"
   xmlns:inkscape="http://www.inkscape.org/namespaces/inkscape"
   xmlns:sodipodi="http://sodipodi.sourceforge.net/DTD/sodipodi-0.dtd"
   xmlns="http://www.w3.org/2000/svg"
   xmlns:svg="http://www.w3.org/2000/svg">
  <sodipodi:namedview
     id="namedview12800"
     pagecolor="#ffffff"
     bordercolor="#666666"
     borderopacity="1.0"
     inkscape:showpageshadow="2"
     inkscape:pageopacity="0.0"
     inkscape:pagecheckerboard="0"
     inkscape:deskcolor="#d1d1d1"
     inkscape:document-units="mm"
     showgrid="false"
     inkscape:zoom="1.1893044"
     inkscape:cx="146.72442"
     inkscape:cy="191.28829"
     inkscape:window-width="2560"
     inkscape:window-height="1410"
     inkscape:window-x="0"
     inkscape:window-y="0"
     inkscape:window-maximized="1"
     inkscape:current-layer="layer1" />
  <defs
     id="defs12795" />
  <g
     inkscape:label="Layer 1"
     inkscape:groupmode="layer"
     id="layer1"
     transform="translate(-127.55458,-90.701063)">
    <path
       d="m 179.46512,163.54193 -7.13267,-2.45243 c -10.25641,-3.52647 -15.38444,-5.28965 -16.43136,-10.23481 -1.04692,-4.94516 2.68111,-9.79569 10.13701,-19.4959 l 23.37132,-30.40678 c 3.70176,-4.815853 5.55196,-7.224093 6.71258,-6.371223 1.15998,0.85256 0.47775,4.11946 -0.88655,10.653253 l -5.0469,24.1694 c -0.4236,2.02884 -0.63562,3.0437 -0.27614,3.84262 0.35948,0.79887 1.15033,1.07083 2.73142,1.61446 l 7.13267,2.45244 c 10.25661,3.52654 15.38424,5.28958 16.43156,10.23488 1.04696,4.94496 -2.68105,9.79571 -10.13695,19.49593 l -23.37162,30.40685 c -3.70164,4.81533 -5.55186,7.22367 -6.71248,6.3707 -1.16011,-0.85187 -0.47784,-4.11936 0.88642,-10.65263 l 5.04697,-24.16966 c 0.4236,-2.02884 0.63562,-3.04369 0.27614,-3.84261 -0.35948,-0.79896 -1.15034,-1.07086 -2.73142,-1.61449 z"
       stroke="#222222"
       stroke-width="1.07038"
       id="path206"
       style="fill:none;fill-opacity:1;stroke:#3080b5;stroke-width:7;stroke-dasharray:none;stroke-opacity:1" />
  </g>
</svg>
