<?xml version="1.0" encoding="UTF-8" standalone="no"?>
<!-- Uploaded to: SVG Repo, www.svgrepo.com, Generator: SVG Repo Mixer Tools -->

<svg
   width="831.43066"
   height="862.00909"
   viewBox="0 0 16.628613 17.240182"
   version="1.1"
   id="svg2433"
   sodipodi:docname="puzzle.svg"
   inkscape:version="1.2.2 (b0a8486541, 2022-12-01)"
   xmlns:inkscape="http://www.inkscape.org/namespaces/inkscape"
   xmlns:sodipodi="http://sodipodi.sourceforge.net/DTD/sodipodi-0.dtd"
   xmlns="http://www.w3.org/2000/svg"
   xmlns:svg="http://www.w3.org/2000/svg">
  <defs
     id="defs2437" />
  <sodipodi:namedview
     id="namedview2435"
     pagecolor="#ffffff"
     bordercolor="#666666"
     borderopacity="1.0"
     inkscape:showpageshadow="2"
     inkscape:pageopacity="0.0"
     inkscape:pagecheckerboard="0"
     inkscape:deskcolor="#d1d1d1"
     showgrid="false"
     inkscape:zoom="0.295"
     inkscape:cx="408.47458"
     inkscape:cy="432.20339"
     inkscape:window-width="852"
     inkscape:window-height="1408"
     inkscape:window-x="0"
     inkscape:window-y="0"
     inkscape:window-maximized="1"
     inkscape:current-layer="svg2433" />
  <path
     fill="#444"
     d="m 15.194681,1.4330748 c -1.1,-1.00000005 -2.5,-1.30000005 -3.1,-0.4 -0.7,1.1 0.5,1.7 -0.3,2.5 -0.5,0.6 -1.9999999,-0.8 -1.9999999,-0.8 l -0.8,-0.8 -1.4,1.4 c -0.6,0.7 -2.1,1.5 -2.6,1.1 -0.7,-0.6 0.1,-1.8 -0.5,-2.6 -0.7,-1.00000005 -2.1,-0.8 -3,0.3 -0.99999999,1.1 -1.39999999,2.4 -0.49999999,3 1.09999999,0.7 1.89999999,-0.3 2.69999999,0.5 0.4,0.4 -0.2,1.7 -0.5,2.1 l -2.29999999,2.3000002 6.49999999,6.5 1.7,-1.7 c 0.7,-0.7 1.4999999,-2 1.0999999,-2.4 -0.5999999,-0.7 -1.6999999,0.1 -2.4999999,-0.4 -1,-0.7 -0.8,-2 0.3,-3.0000002 1.1,-1 2.4999999,-1.3 3.0999999,-0.4 0.7,1.1 -0.4,1.8000002 0.4,2.6000002 0.4,0.4 1.6,-0.2 2,-0.6 l 2.1,-2.1000002 -1.1,-1.1 c -0.6,-0.6 -1.9,-2 -1.4,-2.5 0.6,-0.7 1.7,0.2 2.5,-0.4 0.9,-0.8 0.6,-2.1 -0.4,-3.1 z"
     id="path2431"
     style="fill:none;fill-opacity:1;stroke:#1b3a4f;stroke-opacity:1" />
</svg>
